<?xml version="1.0" encoding="UTF-8" standalone="no"?><!DOCTYPE svg PUBLIC "-//W3C//DTD SVG 1.1//EN" "http://www.w3.org/Graphics/SVG/1.1/DTD/svg11.dtd"><svg width="100%" height="100%" viewBox="0 0 100 100" version="1.1" xmlns="http://www.w3.org/2000/svg" xmlns:xlink="http://www.w3.org/1999/xlink" xml:space="preserve" xmlns:serif="http://www.serif.com/" style="fill-rule:evenodd;clip-rule:evenodd;stroke-linejoin:round;stroke-miterlimit:2;"><rect x="0" y="0" width="100" height="100" style="fill:none;fill-rule:nonzero;"/><path d="M28.167,20.167l-7.5,-7.459l-5.875,5.875l7.458,7.459l5.917,-5.875Zm-11.5,23.583l-12.5,0l0,8.333l12.5,0l0,-8.333Zm37.5,-41.458l-8.334,0l0,12.291l8.334,0l0,-12.291Zm31.041,16.291l-5.875,-5.875l-7.458,7.459l5.875,5.875l7.458,-7.459Zm-13.375,57.084l7.459,7.5l5.875,-5.875l-7.5,-7.459l-5.834,5.834Zm11.5,-31.917l0,8.333l12.5,0l0,-8.333l-12.5,0Zm-33.333,-20.833c-13.792,0 -25,11.208 -25,25c0,13.791 11.208,25 25,25c13.792,0 25,-11.209 25,-25c0,-13.792 -11.208,-25 -25,-25Zm-4.167,70.625l8.334,0l0,-12.292l-8.334,0l0,12.292Zm-31.041,-16.292l5.875,5.875l7.458,-7.5l-5.875,-5.875l-7.458,7.5Z" style="fill:#fff;fill-rule:nonzero;"/></svg>